<svg xmlns="http://www.w3.org/2000/svg" viewBox="0 0 64 64" role="img" aria-label="Mowleeds favicon">
  <defs>
    <linearGradient id="bg" x1="0" y1="0" x2="1" y2="1">
      <stop offset="0%" stop-color="#0d0d12" />
      <stop offset="100%" stop-color="#1a1a22" />
    </linearGradient>
    <linearGradient id="accent" x1="0" y1="0" x2="1" y2="1">
      <stop offset="0%" stop-color="#22d3ee" />
      <stop offset="100%" stop-color="#2563eb" />
    </linearGradient>
  </defs>
  <rect x="2" y="2" width="60" height="60" rx="14" fill="url(#bg)" />
  <rect x="3" y="3" width="58" height="58" rx="13" fill="none" stroke="#22d3ee" stroke-opacity="0.45" />
  <path d="M19 17h15c7 0 12 4 12 10 0 4-2 7-6 8 5 1 8 5 8 10 0 7-6 12-14 12H19V17zm9 7v8h5c3 0 5-1 5-4s-2-4-5-4h-5zm0 14v10h6c4 0 6-2 6-5s-2-5-6-5h-6z" fill="url(#accent)" />
</svg>
